<?xml version="1.0" encoding="UTF-8"?>
<svg width="435px" height="503px" viewBox="0 0 435 503" version="1.1" xmlns="http://www.w3.org/2000/svg" xmlns:xlink="http://www.w3.org/1999/xlink">
    <!-- Generator: Sketch 52.3 (67297) - http://www.bohemiancoding.com/sketch -->
    <title>Artboard</title>
    <desc>Created with Sketch.</desc>
    <defs>
        <polygon id="path-1" points="0.264432298 0.806992583 184.703583 0.806992583 184.703583 440.972093 0.264432298 440.972093"></polygon>
        <filter x="-19.5%" y="-16.3%" width="139.0%" height="132.7%" filterUnits="objectBoundingBox" id="filter-3">
            <feGaussianBlur stdDeviation="24" in="SourceGraphic"></feGaussianBlur>
        </filter>
        <path d="M206.164028,2 C149.204032,2 103.027751,48.8854158 103.027751,106.723208 C103.027751,122.610171 106.532526,137.656012 112.770271,151.144065 C107.626253,155.074776 102.732768,159.332362 98.0978993,163.870322 C73.7894183,136.232257 45.4670141,122.759248 31.6661222,133.491428 C16.3054574,145.435372 24.7522067,182.829093 50.5329085,217.011503 C53.0799987,220.388303 55.7038654,223.60235 58.3748754,226.650907 C52.4496242,243.707236 49.2061587,262.084743 49.2061587,281.247299 C49.2061587,370.580011 119.336672,443 205.8448,443 C283.270417,443 347.565925,384.987145 360.216518,308.760904 C370.542268,313.737889 379.98711,314.410788 386.197916,309.580144 C398.917204,299.689087 393.281547,270.527428 373.609283,244.444415 C366.858349,235.492954 359.332916,228.06919 351.842504,222.57659 C341.095157,194.079623 322.763112,169.496955 299.389417,151.496927 C305.72953,137.918606 309.301652,122.749674 309.301652,106.723208 C309.301652,48.8854158 263.125371,2 206.164028,2 Z" id="path-4"></path>
        <filter x="-2.6%" y="-2.2%" width="105.1%" height="104.3%" filterUnits="objectBoundingBox" id="filter-5">
            <feGaussianBlur stdDeviation="5.5" in="SourceAlpha" result="shadowBlurInner1"></feGaussianBlur>
            <feOffset dx="0" dy="3" in="shadowBlurInner1" result="shadowOffsetInner1"></feOffset>
            <feComposite in="shadowOffsetInner1" in2="SourceAlpha" operator="arithmetic" k2="-1" k3="1" result="shadowInnerInner1"></feComposite>
            <feColorMatrix values="0 0 0 0 0   0 0 0 0 0   0 0 0 0 0  0 0 0 0.5 0" type="matrix" in="shadowInnerInner1"></feColorMatrix>
        </filter>
        <polygon id="path-6" points="0.264432298 0.806992583 184.703583 0.806992583 184.703583 440.972093 0.264432298 440.972093"></polygon>
        <filter x="-8.1%" y="-6.8%" width="116.3%" height="113.6%" filterUnits="objectBoundingBox" id="filter-8">
            <feGaussianBlur stdDeviation="10" in="SourceGraphic"></feGaussianBlur>
        </filter>
        <path d="M206.164028,2 C149.204032,2 103.027751,48.8854158 103.027751,106.723208 C103.027751,122.610171 106.532526,137.656012 112.770271,151.144065 C107.626253,155.074776 102.732768,159.332362 98.0978993,163.870322 C73.7894183,136.232257 45.4670141,122.759248 31.6661222,133.491428 C16.3054574,145.435372 24.7522067,182.829093 50.5329085,217.011503 C53.0799987,220.388303 55.7038654,223.60235 58.3748754,226.650907 C52.4496242,243.707236 49.2061587,262.084743 49.2061587,281.247299 C49.2061587,370.580011 119.336672,443 205.8448,443 C283.270417,443 347.565925,384.987145 360.216518,308.760904 C370.542268,313.737889 379.98711,314.410788 386.197916,309.580144 C398.917204,299.689087 393.281547,270.527428 373.609283,244.444415 C366.858349,235.492954 359.332916,228.06919 351.842504,222.57659 C341.095157,194.079623 322.763112,169.496955 299.389417,151.496927 C305.72953,137.918606 309.301652,122.749674 309.301652,106.723208 C309.301652,48.8854158 263.125371,2 206.164028,2 Z" id="path-9"></path>
        <filter x="-2.6%" y="-2.2%" width="105.1%" height="104.3%" filterUnits="objectBoundingBox" id="filter-10">
            <feGaussianBlur stdDeviation="5.5" in="SourceAlpha" result="shadowBlurInner1"></feGaussianBlur>
            <feOffset dx="0" dy="3" in="shadowBlurInner1" result="shadowOffsetInner1"></feOffset>
            <feComposite in="shadowOffsetInner1" in2="SourceAlpha" operator="arithmetic" k2="-1" k3="1" result="shadowInnerInner1"></feComposite>
            <feColorMatrix values="0 0 0 0 0   0 0 0 0 0   0 0 0 0 0  0 0 0 0.5 0" type="matrix" in="shadowInnerInner1"></feColorMatrix>
        </filter>
        <filter x="-125.0%" y="-136.4%" width="350.0%" height="372.7%" filterUnits="objectBoundingBox" id="filter-11">
            <feGaussianBlur stdDeviation="10" in="SourceGraphic"></feGaussianBlur>
        </filter>
        <filter x="-125.0%" y="-136.4%" width="350.0%" height="372.7%" filterUnits="objectBoundingBox" id="filter-12">
            <feGaussianBlur stdDeviation="10" in="SourceGraphic"></feGaussianBlur>
        </filter>
    </defs>
    <g id="Artboard" stroke="none" stroke-width="1" fill="none" fill-rule="evenodd">
        <g id="Group" transform="translate(11.000000, 35.000000)">
            <g id="Group-3" transform="translate(205.000000, 10.000000)">
                <mask id="mask-2" fill="white">
                    <use xlink:href="#path-1"></use>
                </mask>
                <g id="Clip-2"></g>
                <path d="M165.436769,242.788722 C158.727517,233.8546 151.248701,226.442719 143.808699,220.959921 C133.128501,192.513808 114.914615,167.975008 91.688531,150.008467 C97.9882416,136.453012 101.537601,121.31115 101.537601,105.313283 C101.537601,47.9923718 56.3033495,1.47049858 0.264432298,0.806992583 L0.264432298,440.97223 C76.5140846,440.211792 139.642351,382.578241 152.129349,306.990436 C162.389299,311.959905 171.772615,312.630237 177.945181,307.808214 C190.583415,297.936173 184.982334,268.825189 165.436769,242.788722" id="Fill-1" mask="url(#mask-2)"></path>
            </g>
            <path d="M308.301652,106.723208 C308.301652,48.8854158 262.125371,2 205.164028,2 C148.204032,2 102.027751,48.8854158 102.027751,106.723208 C102.027751,122.610171 105.532526,137.656012 111.770271,151.144065 C106.626253,155.074776 101.732768,159.332362 97.0978993,163.870322 C72.7894183,136.232257 44.4670141,122.759248 30.6661222,133.491428 C15.3054574,145.435372 23.7522067,182.829093 49.5329085,217.011503 C52.0799987,220.388303 54.7038654,223.60235 57.3748754,226.650907 C51.4496242,243.707236 48.2061587,262.084743 48.2061587,281.247299 C48.2061587,370.580011 118.336672,443 204.8448,443 C282.270417,443 346.565925,384.987145 359.216518,308.760904 C369.542268,313.737889 378.98711,314.410788 385.197916,309.580144 C397.917204,299.689087 392.281547,270.527428 372.609283,244.444415 C365.858349,235.492954 358.332916,228.06919 350.842504,222.57659 C340.095157,194.079623 321.763112,169.496955 298.389417,151.496927 C304.72953,137.918606 308.301652,122.749674 308.301652,106.723208" id="Stroke-6" fill="#9773B7" filter="url(#filter-3)"></path>
            <g id="Stroke-6">
                <use fill="#9773B7" fill-rule="evenodd" xlink:href="#path-4"></use>
                <use fill="black" fill-opacity="1" filter="url(#filter-5)" xlink:href="#path-4"></use>
                <use stroke="#FFFFFF" stroke-width="5" xlink:href="#path-4"></use>
            </g>
            <ellipse id="Oval" fill="#B997D5" fill-rule="nonzero" cx="209" cy="302.5" rx="95" ry="96.5"></ellipse>
            <path d="M163,127 C170.623632,130.14676 178.4549,132.374201 186.438883,133.505484 C190.436232,134.025099 194.446978,134.32306 198.451026,134.313371 C202.461771,134.318215 206.409556,134.003297 210.451112,133.469147 C214.489989,132.967701 218.601204,132.312429 222.835662,131.916358 C227.06878,131.538456 231.409066,131.328915 235.802936,131.956329 C240.151259,132.54135 244.400452,133.849472 248.082997,136.019985 C251.724015,138.19171 254.789007,141.329991 256,145 C253.695898,141.812058 250.432646,139.531324 246.810383,138.102079 C243.213572,136.613485 239.268466,135.932777 235.370247,135.717179 C227.520224,135.396205 219.557675,137.208196 211.191908,138.265595 C202.775236,139.424736 193.87765,139.136465 185.602976,137.194872 C177.305528,135.289617 169.451487,131.85822 163,127" id="Fill-18" fill="#000000"></path>
            <path d="M163,127 C170.623632,130.14676 178.4549,132.374201 186.438883,133.505484 C190.436232,134.025099 194.446978,134.32306 198.451026,134.313371 C202.461771,134.318215 206.409556,134.003297 210.451112,133.469147 C214.489989,132.967701 218.601204,132.312429 222.835662,131.916358 C227.06878,131.538456 231.409066,131.328915 235.802936,131.956329 C240.151259,132.54135 244.400452,133.849472 248.082997,136.019985 C251.724015,138.19171 254.789007,141.329991 256,145 C253.695898,141.812058 250.432646,139.531324 246.810383,138.102079 C243.213572,136.613485 239.268466,135.932777 235.370247,135.717179 C227.520224,135.396205 219.557675,137.208196 211.191908,138.265595 C202.775236,139.424736 193.87765,139.136465 185.602976,137.194872 C177.305528,135.289617 169.451487,131.85822 163,127" id="Fill-18" stroke="#F8E71C"></path>
            <g id="Group-3" transform="translate(205.000000, 10.000000)">
                <mask id="mask-7" fill="white">
                    <use xlink:href="#path-6"></use>
                </mask>
                <g id="Clip-2"></g>
                <path d="M165.436769,242.788722 C158.727517,233.8546 151.248701,226.442719 143.808699,220.959921 C133.128501,192.513808 114.914615,167.975008 91.688531,150.008467 C97.9882416,136.453012 101.537601,121.31115 101.537601,105.313283 C101.537601,47.9923718 56.3033495,1.47049858 0.264432298,0.806992583 L0.264432298,440.97223 C76.5140846,440.211792 139.642351,382.578241 152.129349,306.990436 C162.389299,311.959905 171.772615,312.630237 177.945181,307.808214 C190.583415,297.936173 184.982334,268.825189 165.436769,242.788722" id="Fill-1" mask="url(#mask-7)"></path>
            </g>
            <path d="M308.301652,106.723208 C308.301652,48.8854158 262.125371,2 205.164028,2 C148.204032,2 102.027751,48.8854158 102.027751,106.723208 C102.027751,122.610171 105.532526,137.656012 111.770271,151.144065 C106.626253,155.074776 101.732768,159.332362 97.0978993,163.870322 C72.7894183,136.232257 44.4670141,122.759248 30.6661222,133.491428 C15.3054574,145.435372 23.7522067,182.829093 49.5329085,217.011503 C52.0799987,220.388303 54.7038654,223.60235 57.3748754,226.650907 C51.4496242,243.707236 48.2061587,262.084743 48.2061587,281.247299 C48.2061587,370.580011 118.336672,443 204.8448,443 C282.270417,443 346.565925,384.987145 359.216518,308.760904 C369.542268,313.737889 378.98711,314.410788 385.197916,309.580144 C397.917204,299.689087 392.281547,270.527428 372.609283,244.444415 C365.858349,235.492954 358.332916,228.06919 350.842504,222.57659 C340.095157,194.079623 321.763112,169.496955 298.389417,151.496927 C304.72953,137.918606 308.301652,122.749674 308.301652,106.723208" id="Stroke-6" fill="#9773B7" filter="url(#filter-8)"></path>
            <g id="Stroke-6">
                <use fill="#9773B7" fill-rule="evenodd" xlink:href="#path-9"></use>
                <use fill="black" fill-opacity="1" filter="url(#filter-10)" xlink:href="#path-9"></use>
                <use stroke="#FFFFFF" stroke-width="5" xlink:href="#path-9"></use>
            </g>
            <ellipse id="Oval" fill="#B997D5" fill-rule="nonzero" cx="209" cy="302.5" rx="95" ry="96.5"></ellipse>
            <path d="M261.500624,123 C252.387314,123 245,115.612686 245,106.500624 C245,97.3873141 252.387314,90 261.500624,90 C270.612686,90 278,97.3873141 278,106.500624 C278,115.612686 270.612686,123 261.500624,123 Z" id="Fill-8" stroke="#979797" fill="#000000"></path>
            <path d="M155.000606,123 C146.163456,123 139,115.836544 139,107.000606 C139,98.1634561 146.163456,91 155.000606,91 C163.836544,91 171,98.1634561 171,107.000606 C171,115.836544 163.836544,123 155.000606,123 Z" id="Fill-8" stroke="#979797" fill="#000000"></path>
            <ellipse id="Oval" fill="#C94958" fill-rule="nonzero" filter="url(#filter-11)" cx="151" cy="134" rx="12" ry="11"></ellipse>
            <ellipse id="Oval" fill="#4A90E2" fill-rule="nonzero" filter="url(#filter-12)" cx="266" cy="134" rx="12" ry="11"></ellipse>
            <path d="M261,71 C262.853952,88.8066636 271.682161,89.7564925 287,97" id="Path-10" stroke="#000000" fill-rule="nonzero"></path>
            <path d="M165,78 C150.308881,78.6791425 142.153174,76.4555501 136,91" id="Path-11" stroke="#000000" fill-rule="nonzero"></path>
        </g>
        <path d="M220.545,37 L220,479.603774" id="Stroke-10" stroke="#FFFFFF" stroke-width="3"></path>
        <path d="M197.438883,168.505484 C201.436232,169.025099 205.446978,169.32306 209.451026,169.313371 C213.461771,169.318215 217.409556,169.003297 221.451112,168.469147 C225.489989,167.967701 229.601204,167.312429 233.835662,166.916358 C238.06878,166.538456 242.409066,166.328915 246.802936,166.956329 C251.151259,167.54135 255.400452,168.849472 259.082997,171.019985 C262.724015,173.19171 265.789007,176.329991 267,180 C264.695898,176.812058 261.432646,174.531324 257.810383,173.102079 C254.213572,171.613485 250.268466,170.932777 246.370247,170.717179 C238.520224,170.396205 230.557675,172.208196 222.191908,173.265595 C213.775236,174.424736 204.87765,174.136465 196.602976,172.194872 C188.305528,170.289617 180.451487,166.85822 174,162 C181.623632,165.14676 189.4549,167.374201 197.438883,168.505484 Z" id="Fill-18" fill="#000000"></path>
    </g>
</svg>