<?xml version="1.0" encoding="UTF-8"?>
<svg width="402px" height="538px" viewBox="0 0 402 538" version="1.1" xmlns="http://www.w3.org/2000/svg" xmlns:xlink="http://www.w3.org/1999/xlink">
    <!-- Generator: Sketch 52.3 (67297) - http://www.bohemiancoding.com/sketch -->
    <title>Artboard</title>
    <desc>Created with Sketch.</desc>
    <defs>
        <filter x="-26.1%" y="-16.6%" width="152.2%" height="133.1%" filterUnits="objectBoundingBox" id="filter-1">
            <feGaussianBlur stdDeviation="24" in="SourceGraphic"></feGaussianBlur>
        </filter>
        <path d="M297.375132,104.632111 C297.375132,47.146955 236.717457,-0.0134227237 161.900665,0.546803826 C135.087907,0.74668365 120.625996,22.7869533 102.082038,40.2102805 C93.6788208,48.1055336 73.5784492,46.3347672 70.1232114,56.4146223 C65.5572605,69.7333751 64.0602738,84.4076509 65.2049451,99.2297252 C67.1377276,124.294937 76.6177001,149.785245 91.5691731,169.856276 C48.7918584,196.824568 21.1782548,239.389118 21.1782548,287.294118 C21.1782548,368.816934 21.1782548,434.903961 199.756883,434.903961 C275.080217,434.903961 292.874267,262.715938 253.144693,181.343735 C280.318256,162.372043 297.375132,135.109561 297.375132,104.632111 Z" id="path-2"></path>
        <filter x="-3.4%" y="-2.2%" width="106.9%" height="104.4%" filterUnits="objectBoundingBox" id="filter-3">
            <feGaussianBlur stdDeviation="5.5" in="SourceAlpha" result="shadowBlurInner1"></feGaussianBlur>
            <feOffset dx="0" dy="3" in="shadowBlurInner1" result="shadowOffsetInner1"></feOffset>
            <feComposite in="shadowOffsetInner1" in2="SourceAlpha" operator="arithmetic" k2="-1" k3="1" result="shadowInnerInner1"></feComposite>
            <feColorMatrix values="0 0 0 0 0   0 0 0 0 0   0 0 0 0 0  0 0 0 0.5 0" type="matrix" in="shadowInnerInner1"></feColorMatrix>
        </filter>
        <filter x="-82.0%" y="-73.3%" width="265.0%" height="247.9%" filterUnits="objectBoundingBox" id="filter-4">
            <feGaussianBlur stdDeviation="20" in="SourceGraphic"></feGaussianBlur>
        </filter>
    </defs>
    <g id="Artboard" stroke="none" stroke-width="1" fill="none" fill-rule="evenodd">
        <g id="Group-4" transform="translate(62.000000, 53.000000)">
            <path d="M297.375132,104.632111 C297.375132,47.146955 236.717457,-0.0134227237 161.900665,0.546803826 C135.087907,0.74668365 120.625996,22.7869533 102.082038,40.2102805 C93.6788208,48.1055336 73.5784492,46.3347672 70.1232114,56.4146223 C65.5572605,69.7333751 64.0602738,84.4076509 65.2049451,99.2297252 C67.1377276,124.294937 76.6177001,149.785245 91.5691731,169.856276 C48.7918584,196.824568 21.1782548,239.389118 21.1782548,287.294118 C21.1782548,368.816934 21.1782548,434.903961 199.756883,434.903961 C275.080217,434.903961 292.874267,262.715938 253.144693,181.343735 C280.318256,162.372043 297.375132,135.109561 297.375132,104.632111" id="Fill-5" fill="#7ED321"></path>
            <path d="M140.045046,49.0781556 L130.806733,27.4617959 C126.170521,28.8499212 121.483827,33.4307347 118.678633,39.9859349 C114.498129,49.7544975 116.086283,60.1683907 122.224693,63.245894 C128.363103,66.3233974 136.729568,60.8978949 140.910072,51.1293322 C140.966012,50.9993801 141.008309,50.8664745 141.062884,50.7350456 C140.671303,50.2728294 140.323383,49.7264396 140.045046,49.0781556 Z" id="Stroke-13" stroke="#9B9B9B" fill="#000000"></path>
            <path d="M161.663512,0.546808393 C134.895941,0.746872992 120.458402,22.8075173 101.945695,40.2469512 C93.5566393,48.1495029 73.4901418,46.3770996 70.040727,56.4662728 C65.4824708,69.7973378 63.9880069,84.485179 65.1307492,99.3209553 C67.0602744,124.409338 76.5242708,149.92321 91.4505469,170.012795 C48.7453226,197.006018 21.1782548,239.609915 21.1782548,287.559201 C21.1782548,369.157379 21.1782548,435.305498 199.455934,435.305498 C274.652329,435.305498 292.416392,262.958299 252.753772,181.510874 C279.88154,162.521644 296.909671,135.23396 296.909671,104.728335 C296.909671,47.1900381 236.35422,-0.0139360471 161.663512,0.546808393 Z" id="Fill-5" fill="#7ED321" filter="url(#filter-1)"></path>
            <path d="M297.375132,104.632111 C297.375132,47.146955 236.717457,-0.0134227237 161.900665,0.546803826 C135.087907,0.74668365 120.625996,22.7869533 102.082038,40.2102805 C93.6788208,48.1055336 73.5784492,46.3347672 70.1232114,56.4146223 C65.5572605,69.7333751 64.0602738,84.4076509 65.2049451,99.2297252 C67.1377276,124.294937 76.6177001,149.785245 91.5691731,169.856276 C48.7918584,196.824568 21.1782548,239.389118 21.1782548,287.294118 C21.1782548,368.816934 21.1782548,434.903961 199.756883,434.903961 C275.080217,434.903961 292.874267,262.715938 253.144693,181.343735 C280.318256,162.372043 297.375132,135.109561 297.375132,104.632111" id="Fill-5" fill="#68AA21"></path>
            <g id="Stroke-7">
                <use fill="black" fill-opacity="1" filter="url(#filter-3)" xlink:href="#path-2"></use>
                <use stroke="#FFFFFF" stroke-width="5" xlink:href="#path-2"></use>
            </g>
            <path d="M39.3636619,221.64883 C30.8080278,217.213954 22.3113813,210.149952 15.1805656,200.937638 C-2.54030844,178.050597 -5.12054164,150.57015 9.41655281,139.557976 C23.9522034,128.545801 50.1010691,138.172527 67.8204993,161.059568 C71.8147845,166.219372 75.039795,171.612437 77.4728891,176.99755 C61.6729157,189.737662 48.6877776,204.853897 39.3636619,221.64883 Z" id="Path" stroke="#FFFFFF" stroke-width="7" fill="#7ED321" filter="url(#filter-4)"></path>
            <path d="M39.3636619,221.64883 C30.8080278,217.213954 22.3113813,210.149952 15.1805656,200.937638 C-2.54030844,178.050597 -5.12054164,150.57015 9.41655281,139.557976 C23.9522034,128.545801 50.1010691,138.172527 67.8204993,161.059568 C71.8147845,166.219372 75.039795,171.612437 77.4728891,176.99755 C61.6729157,189.737662 48.6877776,204.853897 39.3636619,221.64883 Z" id="Path" stroke="#FFFFFF" stroke-width="7" fill="#68AA21"></path>
            <path d="M193.270383,234.255821 C198.851748,243.004821 202.174886,253.165548 204.381473,263.499169 C205.372413,268.697415 206.020013,273.97282 206.414993,279.296807 C206.794621,284.627938 206.627138,289.994791 206.275424,295.388793 C206.096776,298.086508 205.792515,300.78851 205.443593,303.496227 C205.022094,306.195371 204.519646,308.8888 203.883211,311.5808 C202.680126,316.979088 200.871312,322.30879 198.523761,327.582766 C196.086886,332.829594 193.019159,337.997833 188.575281,342.747412 C186.329616,345.087909 183.704323,347.292663 180.577977,349.110191 C177.468379,350.917717 173.794923,352.306584 169.874429,352.775254 C165.969288,353.245354 161.912017,352.738104 158.311136,351.487838 C154.69909,350.240431 151.54483,348.361461 148.901393,346.209576 C143.634058,341.842935 140.030386,336.75757 137.25715,331.579329 C134.490892,326.381083 132.482494,321.071385 131.012832,315.700245 C129.515257,310.347681 128.562,304.935104 128.024659,299.541102 C127.502671,294.1471 127.163519,288.781676 127.404973,283.437685 C127.626888,278.097981 128.132128,272.811145 128.972333,267.591466 C130.85791,257.20069 133.861436,246.975663 139.024094,237.982326 L140.082027,238.349547 C137.042214,247.910147 135.467875,257.920843 134.984966,267.947256 C134.467165,277.977955 135.017067,288.074383 136.750514,297.945049 C138.523041,307.781422 141.442825,317.513487 146.361237,326.096737 C148.821839,330.356212 151.832342,334.335628 155.604893,337.297685 C159.32999,340.261171 163.986012,342.045835 168.602955,341.422846 C173.221294,340.894162 177.434883,338.226453 180.794309,334.782865 C184.197001,331.333562 186.850208,327.10838 189.074939,322.698873 C193.442053,313.792697 196.04362,303.992047 197.474202,294.085659 C198.908971,284.162125 199.1588,274.051408 198.354882,264.04357 C197.5719,254.041448 195.69051,244.075048 192.230594,234.671624 L193.270383,234.255821 Z" id="Fill-9" fill="#FFFFFF"></path>
            <path d="M130.806733,27.4617959 C126.170521,28.8499212 121.483827,33.4307347 118.678633,39.9859349 C114.498129,49.7544975 116.086283,60.1683907 122.224693,63.245894 C128.363103,66.3233974 136.729568,60.8978949 140.910072,51.1293322 C140.966012,50.9993801 141.008309,50.8664745 141.062884,50.7350456 C140.671303,50.2728294 140.323383,49.7264396 140.045046,49.0781556 L130.806733,27.4617959 Z" id="Fill-11"></path>
            <path d="M140.045046,49.0781556 L130.806733,27.4617959 C126.170521,28.8499212 121.483827,33.4307347 118.678633,39.9859349 C114.498129,49.7544975 116.086283,60.1683907 122.224693,63.245894 C128.363103,66.3233974 136.729568,60.8978949 140.910072,51.1293322 C140.966012,50.9993801 141.008309,50.8664745 141.062884,50.7350456 C140.671303,50.2728294 140.323383,49.7264396 140.045046,49.0781556 Z" id="Stroke-13" stroke="#9B9B9B" fill="#000000"></path>
            <path d="M137.464684,41.157458 L132.606007,27 C130.167595,27.9095873 127.703098,30.9104608 126.227576,35.2015724 C124.028469,41.6007863 124.864333,48.4203976 128.09211,50.435248 C131.32102,52.4516271 135.720369,48.8973576 137.918342,42.5012012 C137.947829,42.415593 137.970512,42.3299848 138,42.2428479 C137.792451,41.9401617 137.609854,41.5824417 137.464684,41.157458" id="Fill-15"></path>
        </g>
    </g>
</svg>