<?xml version="1.0" encoding="UTF-8"?>
<svg width="435px" height="501px" viewBox="0 0 435 501" version="1.1" xmlns="http://www.w3.org/2000/svg" xmlns:xlink="http://www.w3.org/1999/xlink">
    <!-- Generator: Sketch 52.3 (67297) - http://www.bohemiancoding.com/sketch -->
    <title>Group 5</title>
    <desc>Created with Sketch.</desc>
    <defs>
        <path d="M327.675031,216.529557 C319.720745,204.607688 310.553746,194.798489 301.560561,187.954647 C291.773937,171.632697 278.919706,157.324878 263.766095,145.832637 C270.693422,132.232983 274.619482,116.876711 274.619482,100.606001 C274.619482,45.044626 229.133442,0.0032425762 173.023554,0.0032425762 C116.914993,0.0032425762 71.4289525,45.044626 71.4289525,100.606001 C71.4289525,116.876711 75.3550127,132.232983 82.2823395,145.832637 C69.1853,155.766652 57.8051656,167.802826 48.6368399,181.422188 C37.3230464,188.423692 25.190605,201.374305 15.4822636,218.028659 C-2.25731874,248.450841 -5.18428349,279.661332 8.94236824,287.737564 C13.5185702,290.353438 19.326061,290.207601 25.6855089,287.799315 C37.4610357,357.851134 98.93791,411.25911 173.023554,411.25911 C247.596141,411.25911 309.40074,357.149539 320.59512,286.417145 C327.55031,288.834628 333.775749,288.774191 338.440848,285.722119 C352.051366,276.818162 347.23103,245.840222 327.675031,216.529557 Z" id="path-1"></path>
        <filter x="-19.8%" y="-16.7%" width="139.6%" height="133.3%" filterUnits="objectBoundingBox" id="filter-2">
            <feGaussianBlur stdDeviation="22" in="SourceGraphic"></feGaussianBlur>
        </filter>
        <filter x="-22.0%" y="-18.5%" width="143.9%" height="137.0%" filterUnits="objectBoundingBox" id="filter-3">
            <feMorphology radius="3" operator="erode" in="SourceAlpha" result="shadowSpreadInner1"></feMorphology>
            <feGaussianBlur stdDeviation="5.5" in="shadowSpreadInner1" result="shadowBlurInner1"></feGaussianBlur>
            <feOffset dx="0" dy="1" in="shadowBlurInner1" result="shadowOffsetInner1"></feOffset>
            <feComposite in="shadowOffsetInner1" in2="SourceAlpha" operator="arithmetic" k2="-1" k3="1" result="shadowInnerInner1"></feComposite>
            <feColorMatrix values="0 0 0 0 0   0 0 0 0 0   0 0 0 0 0  0 0 0 0.5 0" type="matrix" in="shadowInnerInner1"></feColorMatrix>
        </filter>
        <path d="M327.675031,216.529557 C319.720745,204.607688 310.553746,194.798489 301.560561,187.954647 C291.773937,171.632697 278.919706,157.324878 263.766095,145.832637 C270.693422,132.232983 274.619482,116.876711 274.619482,100.606001 C274.619482,45.044626 229.133442,0.0032425762 173.023554,0.0032425762 C116.914993,0.0032425762 71.4289525,45.044626 71.4289525,100.606001 C71.4289525,116.876711 75.3550127,132.232983 82.2823395,145.832637 C69.1853,155.766652 57.8051656,167.802826 48.6368399,181.422188 C37.3230464,188.423692 25.190605,201.374305 15.4822636,218.028659 C-2.25731874,248.450841 -5.18428349,279.661332 8.94236824,287.737564 C13.5185702,290.353438 19.326061,290.207601 25.6855089,287.799315 C37.4610357,357.851134 98.93791,411.25911 173.023554,411.25911 C247.596141,411.25911 309.40074,357.149539 320.59512,286.417145 C327.55031,288.834628 333.775749,288.774191 338.440848,285.722119 C352.051366,276.818162 347.23103,245.840222 327.675031,216.529557 Z" id="path-4"></path>
        <filter x="-2.9%" y="-2.4%" width="105.8%" height="104.9%" filterUnits="objectBoundingBox" id="filter-5">
            <feMorphology radius="3" operator="erode" in="SourceAlpha" result="shadowSpreadInner1"></feMorphology>
            <feGaussianBlur stdDeviation="5.5" in="shadowSpreadInner1" result="shadowBlurInner1"></feGaussianBlur>
            <feOffset dx="0" dy="1" in="shadowBlurInner1" result="shadowOffsetInner1"></feOffset>
            <feComposite in="shadowOffsetInner1" in2="SourceAlpha" operator="arithmetic" k2="-1" k3="1" result="shadowInnerInner1"></feComposite>
            <feColorMatrix values="0 0 0 0 0   0 0 0 0 0   0 0 0 0 0  0 0 0 0.5 0" type="matrix" in="shadowInnerInner1"></feColorMatrix>
        </filter>
    </defs>
    <g id="Page-1" stroke="none" stroke-width="1" fill="none" fill-rule="evenodd">
        <g id="Artboard" transform="translate(0.000000, -2.000000)">
            <g id="Group-5" transform="translate(53.000000, 59.000000)">
                <g id="Group-17">
                    <g id="Stroke-1" filter="url(#filter-2)">
                        <use fill="#4A90E2" fill-rule="evenodd" xlink:href="#path-1"></use>
                        <use fill="black" fill-opacity="1" filter="url(#filter-3)" xlink:href="#path-1"></use>
                        <use stroke="#4A90E2" stroke-width="5" xlink:href="#path-1"></use>
                    </g>
                    <g id="Stroke-1">
                        <use fill="#4A90E2" fill-rule="evenodd" xlink:href="#path-4"></use>
                        <use fill="black" fill-opacity="1" filter="url(#filter-5)" xlink:href="#path-4"></use>
                        <use stroke="#FFFFFF" stroke-width="5" xlink:href="#path-4"></use>
                    </g>
                    <path d="M166.669944,109.983469 C168.958709,109.453988 171.332389,109.333114 173.664939,109.589315 C175.997488,109.842888 178.294214,110.486674 180.409164,111.520673 C182.512174,112.570439 184.475868,113.99071 185.865048,116.004841 C183.415738,115.916813 181.296807,115.684262 179.203085,115.476674 L173.074504,114.810552 L166.932655,114.09319 C164.836279,113.818596 162.704079,113.559767 160.311823,113.044738 C162.166717,111.445784 164.390468,110.530031 166.669944,109.983469 Z" id="Fill-3" fill="#000000"></path>
                    <path d="M135.550975,70.6506301 C140.795894,73.6475205 144.334523,79.2445187 144.334523,85.6705558 C144.334523,95.2485176 136.493017,103.012053 126.8205,103.012053 C117.147983,103.012053 109.306477,95.2485176 109.306477,85.6705558 C109.306477,85.5417986 109.323726,85.4182968 109.326379,85.2895395 C110.091954,85.0753821 110.845588,84.7745106 111.566051,84.3632757 L135.550975,70.6506301 Z" id="Fill-5" fill="#000000"></path>
                    <path d="M111.566051,84.3632757 L135.550975,70.6506301 C140.795894,73.6475205 144.334523,79.2445187 144.334523,85.6705558 C144.334523,95.2485176 136.493017,103.012053 126.8205,103.012053 C117.147983,103.012053 109.306477,95.2485176 109.306477,85.6705558 C109.306477,85.5417986 109.323726,85.4182968 109.326379,85.2895395 C110.091954,85.0753821 110.845588,84.7745106 111.566051,84.3632757 Z" id="Stroke-7" stroke="#9B9B9B"></path>
                    <path d="M117.637039,82.4308375 L132.811878,73.7554902 C136.130255,75.6513749 138.3686,79.1921989 138.3686,83.2585626 C138.3686,89.3167219 133.40762,94.2292047 127.287,94.2292047 C121.169033,94.2292047 116.208054,89.3167219 116.208054,83.2585626 C116.208054,83.1757901 116.218668,83.098273 116.219995,83.0168143 C116.704284,82.8814878 117.180613,82.6909797 117.637039,82.4308375" id="Fill-9" fill="#000000"></path>
                    <path d="M234.610422,84.3632757 L210.625498,70.6506301 C205.380579,73.6475205 201.84195,79.2445187 201.84195,85.6705558 C201.84195,95.2485176 209.683456,103.012053 219.355973,103.012053 C229.02849,103.012053 236.869996,95.2485176 236.869996,85.6705558 C236.869996,85.5417986 236.852747,85.4182968 236.850094,85.2895395 C236.084519,85.0753821 235.330885,84.7745106 234.610422,84.3632757" id="Fill-11" fill="#000000"></path>
                    <path d="M234.610422,84.3632757 L210.625498,70.6506301 C205.380579,73.6475205 201.84195,79.2445187 201.84195,85.6705558 C201.84195,95.2485176 209.683456,103.012053 219.355973,103.012053 C229.02849,103.012053 236.869996,95.2485176 236.869996,85.6705558 C236.869996,85.5417986 236.852747,85.4182968 236.850094,85.2895395 C236.084519,85.0753821 235.330885,84.7745106 234.610422,84.3632757 Z" id="Stroke-13" stroke="#9B9B9B"></path>
                    <path d="M215.159109,74.8042202 C211.840732,76.7001048 209.602387,80.2409288 209.602387,84.3072926 C209.602387,90.3654519 214.563367,95.2779346 220.68266,95.2779346 C226.801954,95.2779346 231.762934,90.3654519 231.762934,84.3072926 C231.762934,84.22452 231.752319,84.1470029 231.750992,84.0655443 C231.266703,83.9302178 230.790375,83.7397096 230.333948,83.4795675 L215.159109,74.8042202 Z" id="Fill-15" fill="#000000"></path>
                </g>
                <circle id="Oval" fill="#75B5FF" fill-rule="nonzero" cx="174.837246" cy="269.837246" r="89.8372464"></circle>
            </g>
        </g>
    </g>
</svg>